#!OML:ASF I:\Actors\actors\Patient Classification 1\Patient 1\Session 1\Subject1.ASF
:FULLY-SPECIFIED
:DEGREES
1646
root -1.07891 17.6024 9.44055 30.3946 -3.72583 -13.1116
lowerback 8.27207 0.651751 3.54552
upperback -10.0691 1.26047 -1.36332
thorax -15.8215 0.0608823 -3.8004
lowerneck -12.9956 -4.86382 -4.46002
upperneck 20.8706 -8.29495 10.7757
head 9.37029 -3.13943 3.4413
rclavicle -1.31198e-014 1.59028e-015
rhumerus -28.6325 -30.4295 -34.7868
rradius 32.9177
rwrist 11.8008
rhand 66.2846 -53.5767
rfingers 7.12502
rthumb 74.7179 1.91978
lclavicle -1.31198e-014 1.59028e-015
lhumerus -29.601 1.14968 37.455
lradius 53.8781
lwrist 25.0604
lhand 18.7616 -7.29682
lfingers 7.12502
lthumb 43.3797 16.8136
rfemur -24.6627 30.6555 21.7259
rtibia -0.905966
rfoot -8.02591 -25.876
rtoes 6.64976
lfemur -9.66876 -30.9836 8.168
ltibia -11.8648
lfoot -51.0679 39.1633
ltoes 50.217
1647
root -1.03501 17.6094 9.46728 29.8711 -3.60601 -13.0283
lowerback 7.96836 0.766141 3.56892
upperback -9.95843 1.41887 -1.30012
thorax -15.4719 0.151349 -3.76211
lowerneck -12.2404 -4.94147 -4.71021
upperneck 21.1337 -8.35302 10.6271
head 9.32558 -3.21923 3.44208
rclavicle -1.90833e-014 -1.27222e-014
rhumerus -28.4292 -22.718 -34.3322
rradius 34.7507
rwrist 6.61705
rhand 68.0782 -57.5046
rfingers 7.12502
rthumb 74.2942 4.28334
lclavicle -1.90833e-014 -1.27222e-014
lhumerus -29.7657 -2.96696 35.5151
lradius 56.6344
lwrist 28.1319
lhand 27.7844 -6.26239
lfingers 7.12502
lthumb 51.7044 14.0172
rfemur -24.0419 30.3366 21.9236
rtibia -0.644076
rfoot -8.32367 -25.7634
rtoes 6.19754
lfemur -9.21076 -31.56 7.60941
ltibia -11.6984
lfoot -51.0613 39.6314
ltoes 49.7876
1648
root -0.993178 17.6171 9.4957 29.3273 -3.39685 -12.9712
lowerback 7.66134 0.851394 3.53226
upperback -9.84253 1.53967 -1.14005
thorax -15.1224 0.238555 -3.57205
lowerneck -11.3117 -5.01277 -5.16258
upperneck 21.1626 -8.38797 10.664
head 9.18226 -3.29822 3.54536
rclavicle 1.19271e-015 3.02153e-014
rhumerus -28.5439 -13.9967 -33.6577
rradius 36.9993
rwrist 1.32341
rhand 68.1017 -55.3339
rfingers 7.12502
rthumb 74.2874 6.53409
lclavicle 1.19271e-015 3.02153e-014
lhumerus -29.757 -7.17141 33.2532
lradius 59.1645
lwrist 32.5444
lhand 35.008 -4.92961
lfingers 7.12502
lthumb 58.1442 10.6617
rfemur -23.361 29.9631 22.2198
rtibia -0.408488
rfoot -8.59768 -25.6522
rtoes 5.62871
lfemur -8.79636 -32.1937 7.13058
ltibia -11.4769
lfoot -51.0084 40.1326
ltoes 49.2559
1649
root -0.951789 17.6231 9.52637 28.7725 -3.13324 -12.9019
lowerback 7.38232 0.916818 3.58922
upperback -9.78695 1.64536 -1.00214
thorax -14.8672 0.302138 -3.45927
lowerneck -10.2339 -5.07741 -5.63304
upperneck 21.1804 -8.41959 10.6863
head 9.00729 -3.38395 3.65087
rclavicle 2.46493e-014 -1.27222e-014
rhumerus -29.0168 -6.32939 -32.4196
rradius 39.2694
rwrist -2.88357
rhand 68.3023 -51.3653
rfingers 7.12502
rthumb 74.2281 11.1824
lclavicle 2.46493e-014 -1.27222e-014
lhumerus -29.6054 -11.206 30.6034
lradius 61.5309
lwrist 37.2598
lhand 41.0565 -3.49008
lfingers 7.12502
lthumb 63.265 6.33424
rfemur -22.501 29.5426 22.5616
rtibia -0.372752
rfoot -8.91559 -25.5253
rtoes 5.60612
lfemur -8.40022 -32.8752 6.66339
ltibia -11.2513
lfoot -50.6529 40.9402
ltoes 48.3297
1650
root -0.908835 17.6282 9.55483 28.2103 -2.85052 -12.8196
lowerback 7.12752 0.934945 3.69951
upperback -9.75419 1.69429 -0.859528
thorax -14.6613 0.331274 -3.36164
lowerneck -9.34085 -5.04648 -5.95875
upperneck 21.5678 -8.33406 10.488
head 8.96706 -3.40914 3.67237
rclavicle 2.34566e-014 3.18055e-015
rhumerus -29.4454 -1.74483 -30.253
rradius 41.6996
rwrist -6.89673
rhand 69.3882 -53.3711
rfingers 7.12502
rthumb 73.8683 12.7618
lclavicle 2.34566e-014 3.18055e-015
lhumerus -29.248 -14.4966 27.5708
lradius 63.6034
lwrist 41.1536
lhand 46.5189 -2.0055
lfingers 7.12502
lthumb 67.5247 0.312759
rfemur -21.6207 29.0909 22.8877
rtibia -0.39176
rfoot -9.22129 -25.3784
rtoes 5.47691
lfemur -8.04014 -33.5788 6.18984
ltibia -10.9911
lfoot -50.0159 42.0399
ltoes 47.1068
1651
root -0.865019 17.6337 9.58025 27.6211 -2.52837 -12.6987
lowerback 6.88191 0.886958 3.79503
upperback -9.69129 1.65172 -0.691203
thorax -14.4345 0.32132 -3.20983
lowerneck -8.47766 -4.90819 -6.12562
upperneck 21.9035 -8.0905 10.1457
head 8.88689 -3.36129 3.63394
rclavicle -3.18055e-015 -7.95139e-015
rhumerus -29.8686 0.638544 -27.5875
rradius 44.4844
rwrist -9.83724
rhand 71.4103 -61.1954
rfingers 7.12502
rthumb 73.0368 11.1473
lclavicle -3.18055e-015 -7.95139e-015
lhumerus -28.5683 -16.7454 24.2301
lradius 65.0649
lwrist 43.8178
lhand 51.4435 -0.821789
lfingers 7.12502
lthumb 70.8667 -8.07126
rfemur -20.6781 28.5868 23.2135
rtibia -0.446434
rfoot -9.59294 -25.1974
rtoes 5.60463
lfemur -7.67361 -34.334 5.69439
ltibia -10.7591
lfoot -49.5297 42.9265
ltoes 46.1911
1652
root -0.818927 17.6389 9.60559 26.9939 -2.19517 -12.5339
lowerback 6.66296 0.816252 3.91647
upperback -9.61787 1.5767 -0.559403
thorax -14.2144 0.290115 -3.10909
lowerneck -7.54679 -4.72652 -6.33484
upperneck 22.1587 -7.81588 9.96851
head 8.77309 -3.29015 3.66264
rclavicle -5.1684e-015 -2.06736e-014
rhumerus -29.4279 2.63233 -24.7153
rradius 45.7874
rwrist -12.7027
rhand 72.814 -68.681
rfingers 7.12502
rthumb 72.3493 7.59078
lclavicle -5.1684e-015 -2.06736e-014
lhumerus -27.4962 -17.9191 20.7174
lradius 65.8256
lwrist 45.3731
lhand 55.601 0.0575565
lfingers 7.12502
lthumb 73.1013 -18.0133
rfemur -19.6781 28.0407 23.4985
rtibia -0.520071
rfoot -10.0106 -25.0145
rtoes 6.05526
lfemur -7.18084 -35.141 5.0791
ltibia -10.5965
lfoot -49.4468 43.3635
ltoes 45.7135
1653
root -0.770725 17.6436 9.62987 26.3498 -1.86728 -12.4368
lowerback 6.49216 0.747649 4.17258
upperback -9.55696 1.52057 -0.457149
thorax -14.0373 0.249941 -3.12288
lowerneck -6.52475 -4.57786 -6.51959
upperneck 22.3658 -7.59612 9.79269
head 8.63075 -3.24594 3.68148
rclavicle 1.98785e-016 1.43125e-014
rhumerus -28.6149 3.86592 -21.7167
rradius 46.4049
rwrist -14.3445
rhand 73.9896 -72.7785
rfingers 7.12502
rthumb 71.7123 6.54087
lclavicle 1.98785e-016 1.43125e-014
lhumerus -25.9978 -18.1278 17.1392
lradius 65.8984
lwrist 46.3544
lhand 58.7471 1.20827
lfingers 7.12502
lthumb 74.2813 -26.8522
rfemur -18.7002 27.5212 23.825
rtibia -0.552483
rfoot -10.3893 -24.8498
rtoes 6.30464
lfemur -6.575 -35.9218 4.46043
ltibia -10.4793
lfoot -49.4127 43.7642
ltoes 45.1882
1654
root -0.72431 17.6504 9.64961 25.7417 -1.53266 -12.4288
lowerback 6.35262 0.690832 4.52273
upperback -9.47619 1.49177 -0.362857
thorax -13.854 0.213198 -3.20431
lowerneck -5.6369 -4.45938 -6.78071
upperneck 22.547 -7.43355 9.74388
head 8.51869 -3.21923 3.7472
rclavicle -1.98785e-015 3.18055e-014
rhumerus -27.3745 3.85119 -18.5828
rradius 46.384
rwrist -14.7673
rhand 74.7404 -74.3183
rfingers 7.12502
rthumb 71.2791 6.83329
lclavicle -1.98785e-015 3.18055e-014
lhumerus -24.1386 -17.4836 13.5736
lradius 65.361
lwrist 46.9655
lhand 61.0846 2.65618
lfingers 7.12502
lthumb 74.8012 -33.6544
rfemur -17.8837 27.4035 24.082
rtibia -0.507865
rfoot -10.7748 -25.0857
rtoes 6.40035
lfemur -5.97458 -36.6318 3.96822
ltibia -10.4244
lfoot -49.2897 44.2703
ltoes 44.6893
